  0
SECTION
  2
BLOCKS
  0
ENDSEC
  0
SECTION
  2
ENTITIES
  0
LINE
  8
0
 10
5.28757
 20
-11.8761
 11
5.90187
 21
-11.5831
  0
LINE
  8
0
 10
5.90187
 20
-11.5831
 11
6.5
 21
-11.2583
  0
LINE
  8
0
 10
6.5
 20
-11.2583
 11
7.08031
 21
-10.9027
  0
LINE
  8
0
 10
7.08031
 20
-10.9027
 11
7.6412
 21
-10.5172
  0
LINE
  8
0
 10
7.6412
 20
-10.5172
 11
8.18115
 21
-10.1029
  0
LINE
  8
0
 10
8.18115
 20
-10.1029
 11
8.69868
 21
-9.66087
  0
LINE
  8
0
 10
8.69868
 20
-9.66087
 11
9.19238
 21
-9.19238
  0
LINE
  8
0
 10
9.19238
 20
-9.19238
 11
9.66087
 21
-8.69868
  0
LINE
  8
0
 10
9.66087
 20
-8.69868
 11
10.1029
 21
-8.18115
  0
LINE
  8
0
 10
10.1029
 20
-8.18115
 11
10.5172
 21
-7.6412
  0
LINE
  8
0
 10
10.5172
 20
-7.6412
 11
10.9027
 21
-7.08031
  0
LINE
  8
0
 10
10.9027
 20
-7.08031
 11
11.2583
 21
-6.5
  0
LINE
  8
0
 10
11.2583
 20
-6.5
 11
11.5831
 21
-5.90187
  0
LINE
  8
0
 10
11.5831
 20
-5.90187
 11
11.8761
 21
-5.28757
  0
LINE
  8
0
 10
11.8761
 20
-5.28757
 11
12
 21
-4.9884
  0
LINE
  8
0
 10
12
 20
-4.9884
 11
12
 21
4.9884
  0
LINE
  8
0
 10
12
 20
4.9884
 11
11.8761
 21
5.28757
  0
LINE
  8
0
 10
11.8761
 20
5.28757
 11
11.5831
 21
5.90187
  0
LINE
  8
0
 10
11.5831
 20
5.90187
 11
11.2583
 21
6.5
  0
LINE
  8
0
 10
11.2583
 20
6.5
 11
10.9027
 21
7.08031
  0
LINE
  8
0
 10
10.9027
 20
7.08031
 11
10.5172
 21
7.6412
  0
LINE
  8
0
 10
10.5172
 20
7.6412
 11
10.1029
 21
8.18115
  0
LINE
  8
0
 10
10.1029
 20
8.18115
 11
9.66087
 21
8.69868
  0
LINE
  8
0
 10
9.66087
 20
8.69868
 11
9.19238
 21
9.19238
  0
LINE
  8
0
 10
9.19238
 20
9.19238
 11
8.69868
 21
9.66087
  0
LINE
  8
0
 10
8.69868
 20
9.66087
 11
8.18115
 21
10.1029
  0
LINE
  8
0
 10
8.18115
 20
10.1029
 11
7.6412
 21
10.5172
  0
LINE
  8
0
 10
7.6412
 20
10.5172
 11
7.08031
 21
10.9027
  0
LINE
  8
0
 10
7.08031
 20
10.9027
 11
6.5
 21
11.2583
  0
LINE
  8
0
 10
6.5
 20
11.2583
 11
5.90187
 21
11.5831
  0
LINE
  8
0
 10
5.90187
 20
11.5831
 11
5.28757
 21
11.8761
  0
LINE
  8
0
 10
5.28757
 20
11.8761
 11
4.9884
 21
12
  0
LINE
  8
0
 10
4.9884
 20
12
 11
-4.9884
 21
12
  0
LINE
  8
0
 10
-4.9884
 20
12
 11
-5.28757
 21
11.8761
  0
LINE
  8
0
 10
-5.28757
 20
11.8761
 11
-5.90187
 21
11.5831
  0
LINE
  8
0
 10
-5.90187
 20
11.5831
 11
-6.5
 21
11.2583
  0
LINE
  8
0
 10
-6.5
 20
11.2583
 11
-7.08031
 21
10.9027
  0
LINE
  8
0
 10
-7.08031
 20
10.9027
 11
-7.6412
 21
10.5172
  0
LINE
  8
0
 10
-7.6412
 20
10.5172
 11
-8.18115
 21
10.1029
  0
LINE
  8
0
 10
-8.18115
 20
10.1029
 11
-8.69868
 21
9.66087
  0
LINE
  8
0
 10
-8.69868
 20
9.66087
 11
-9.19238
 21
9.19238
  0
LINE
  8
0
 10
-9.19238
 20
9.19238
 11
-9.66087
 21
8.69868
  0
LINE
  8
0
 10
-9.66087
 20
8.69868
 11
-10.1029
 21
8.18115
  0
LINE
  8
0
 10
-10.1029
 20
8.18115
 11
-10.5172
 21
7.6412
  0
LINE
  8
0
 10
-10.5172
 20
7.6412
 11
-10.9027
 21
7.08031
  0
LINE
  8
0
 10
-10.9027
 20
7.08031
 11
-11.2583
 21
6.5
  0
LINE
  8
0
 10
-11.2583
 20
6.5
 11
-11.5831
 21
5.90187
  0
LINE
  8
0
 10
-11.5831
 20
5.90187
 11
-11.8761
 21
5.28757
  0
LINE
  8
0
 10
-11.8761
 20
5.28757
 11
-12
 21
4.9884
  0
LINE
  8
0
 10
-12
 20
4.9884
 11
-12
 21
-4.9884
  0
LINE
  8
0
 10
-12
 20
-4.9884
 11
-11.8761
 21
-5.28757
  0
LINE
  8
0
 10
-11.8761
 20
-5.28757
 11
-11.5831
 21
-5.90187
  0
LINE
  8
0
 10
-11.5831
 20
-5.90187
 11
-11.2583
 21
-6.5
  0
LINE
  8
0
 10
-11.2583
 20
-6.5
 11
-10.9027
 21
-7.08031
  0
LINE
  8
0
 10
-10.9027
 20
-7.08031
 11
-10.5172
 21
-7.6412
  0
LINE
  8
0
 10
-10.5172
 20
-7.6412
 11
-10.1029
 21
-8.18115
  0
LINE
  8
0
 10
-10.1029
 20
-8.18115
 11
-9.66087
 21
-8.69868
  0
LINE
  8
0
 10
-9.66087
 20
-8.69868
 11
-9.19238
 21
-9.19238
  0
LINE
  8
0
 10
-9.19238
 20
-9.19238
 11
-8.69868
 21
-9.66087
  0
LINE
  8
0
 10
-8.69868
 20
-9.66087
 11
-8.18115
 21
-10.1029
  0
LINE
  8
0
 10
-8.18115
 20
-10.1029
 11
-7.6412
 21
-10.5172
  0
LINE
  8
0
 10
-7.6412
 20
-10.5172
 11
-7.08031
 21
-10.9027
  0
LINE
  8
0
 10
-7.08031
 20
-10.9027
 11
-6.5
 21
-11.2583
  0
LINE
  8
0
 10
-6.5
 20
-11.2583
 11
-5.90187
 21
-11.5831
  0
LINE
  8
0
 10
-5.90187
 20
-11.5831
 11
-5.28757
 21
-11.8761
  0
LINE
  8
0
 10
-5.28757
 20
-11.8761
 11
-4.9884
 21
-12
  0
LINE
  8
0
 10
-4.9884
 20
-12
 11
4.9884
 21
-12
  0
LINE
  8
0
 10
4.9884
 20
-12
 11
5.28757
 21
-11.8761
  0
ENDSEC
  0
SECTION
  2
OBJECTS
  0
DICTIONARY
  0
ENDSEC
  0
EOF
